<svg width="20" height="32" viewBox="0 0 20 32" fill="none" xmlns="http://www.w3.org/2000/svg">
<path d="M6.69369 10.7592V22.5137C6.70729 23.3751 7.05901 24.1965 7.67294 24.8008C8.28686 25.4052 9.11377 25.7439 9.97522 25.7439C10.8367 25.7439 11.6636 25.4052 12.2775 24.8008C12.8914 24.1965 13.2432 23.3751 13.2568 22.5137L13.2674 7.07435C13.2763 6.33815 13.139 5.6075 12.8635 4.92475C12.5879 4.242 12.1796 3.62074 11.6622 3.09698C11.1447 2.57322 10.5285 2.15738 9.8491 1.87356C9.16975 1.58975 8.44081 1.4436 7.70455 1.4436C6.9683 1.4436 6.23936 1.58975 5.56001 1.87356C4.88065 2.15738 4.26439 2.57322 3.74695 3.09698C3.2295 3.62074 2.82117 4.242 2.54562 4.92475C2.27006 5.6075 2.13277 6.33815 2.14171 7.07435V22.6177C2.17144 24.6721 3.00841 26.6323 4.47171 28.0746C5.93501 29.5169 7.9071 30.3254 9.96171 30.3254C12.0163 30.3254 13.9884 29.5169 15.4517 28.0746C16.915 26.6323 17.752 24.6721 17.7817 22.6177V8.093" stroke="#7C01F6" stroke-width="2.62032" stroke-miterlimit="10" stroke-linecap="square"/>
</svg>
