<svg width="32" height="29" viewBox="0 0 32 29" fill="none" xmlns="http://www.w3.org/2000/svg">
<path d="M19.784 0.625C21.2795 0.6404 22.4974 1.41038 23.2065 2.79634C23.3896 3.16208 23.645 3.69625 23.9123 4.25975L24.2351 4.94112L24.3936 5.27567L24.5478 5.61446C24.6095 5.72225 24.7174 5.79925 24.8561 5.79925C28.5561 5.79925 31.5778 8.81756 31.5778 12.5135V21.6608C31.5778 25.3567 28.5561 28.375 24.8561 28.375H7.46613C3.75071 28.375 0.744461 25.3567 0.744461 21.6608V12.5135C0.744461 8.81756 3.75071 5.79925 7.46613 5.79925C7.58946 5.79925 7.7128 5.73765 7.75905 5.61446L7.85154 5.42966C8.28321 4.52109 8.80738 3.41232 9.11571 2.79634C9.82488 1.41038 11.0274 0.6404 12.5228 0.625H19.784ZM16.1611 10.4961C14.5424 10.4961 13.0161 11.1275 11.8599 12.2825C10.719 13.4374 10.087 14.9466 10.1024 16.5481C10.1024 18.1651 10.7345 19.6742 11.8753 20.8292C13.0315 21.9688 14.5424 22.6002 16.1611 22.6002C17.8261 22.6002 19.337 21.9226 20.4315 20.8292C21.5261 19.7358 22.2045 18.2267 22.2199 16.5481C22.2199 14.9466 21.5878 13.422 20.447 12.2671C19.3061 11.1275 17.7799 10.4961 16.1611 10.4961ZM16.1611 12.806C17.1632 12.806 18.1036 13.191 18.8128 13.8994C19.522 14.6078 19.9074 15.5472 19.9074 16.5481C19.892 18.6117 18.227 20.2902 16.1611 20.2902C15.159 20.2902 14.2186 19.9052 13.5095 19.1969C12.8003 18.4885 12.4149 17.5491 12.4149 16.5481V16.5327C12.3995 15.5626 12.7849 14.6232 13.494 13.9148C14.2186 13.191 15.159 12.806 16.1611 12.806ZM24.8099 10.1265C24.039 10.1265 23.4224 10.7579 23.4224 11.5279C23.4224 12.2979 24.039 12.9138 24.8099 12.9138C25.5807 12.9138 26.2128 12.2979 26.2128 11.5279C26.2128 10.7579 25.5807 10.1265 24.8099 10.1265Z" fill="#4D4C4E"/>
</svg>
