<svg width="31" height="31" viewBox="0 0 31 31" fill="none" xmlns="http://www.w3.org/2000/svg">
<path d="M15.5226 0.0834961C24.2753 0.0834961 30.9015 7.26302 30.9015 15.477C30.9015 25.0034 23.135 30.9168 15.4917 30.9168C12.9645 30.9168 10.16 30.2375 7.91013 28.9097C7.12423 28.431 6.46161 28.0759 5.61408 28.3538L2.5013 29.2802C1.71541 29.5272 1.00656 28.9097 1.2377 28.0759L2.27016 24.6174C2.43966 24.1387 2.40884 23.6292 2.16229 23.2278C0.837049 20.7883 0.0819702 18.1172 0.0819702 15.5233C0.0819702 7.40197 6.56948 0.0834961 15.5226 0.0834961ZM22.5648 13.5625C21.4707 13.5625 20.5924 14.4425 20.5924 15.5388C20.5924 16.6196 21.4707 17.5151 22.5648 17.5151C23.6589 17.5151 24.5373 16.6196 24.5373 15.5388C24.5373 14.4425 23.6589 13.5625 22.5648 13.5625ZM15.4609 13.5625C14.3822 13.547 13.4885 14.4425 13.4885 15.5233C13.4885 16.6196 14.3668 17.4996 15.4609 17.5151C16.555 17.5151 17.4334 16.6196 17.4334 15.5388C17.4334 14.4425 16.555 13.5625 15.4609 13.5625ZM8.35701 13.5625C7.26292 13.5625 6.38456 14.4425 6.38456 15.5388C6.38456 16.6196 7.27833 17.5151 8.35701 17.5151C9.45111 17.4996 10.3295 16.6196 10.3295 15.5388C10.3295 14.4425 9.45111 13.5625 8.35701 13.5625Z" fill="#7C01F6"/>
</svg>
