<svg width="11" height="12" viewBox="0 0 11 12" fill="none" xmlns="http://www.w3.org/2000/svg">
<g clip-path="url(#clip0_20_106)">
<path d="M10.5863 3.83125C10.5863 2.91493 10.2909 2.10843 9.73577 1.5275C9.17867 0.944543 8.39653 0.627441 7.50083 0.627441H3.54036C2.64475 0.627441 1.86172 0.944459 1.30357 1.52704C0.7472 2.10776 0.450287 2.91432 0.450287 3.83125V7.56333C0.450287 8.47852 0.747396 9.28415 1.30371 9.86433C1.86179 10.4463 2.64471 10.7635 3.54036 10.7635H7.50083C8.39658 10.7635 9.1786 10.4463 9.73563 9.86387C10.2908 9.28347 10.5863 8.47791 10.5863 7.56333V3.83125Z" fill="white" stroke="#C093ED"/>
</g>
<defs>
<clipPath id="clip0_20_106">
<rect width="10.9633" height="10.9633" fill="white" transform="translate(0.0367432 0.213623)"/>
</clipPath>
</defs>
</svg>
