<svg width="25" height="23" viewBox="0 0 25 23" fill="none" xmlns="http://www.w3.org/2000/svg">
<path d="M20.5606 14.0289C22.8156 14.0289 24.642 15.8246 24.642 18.04C24.642 20.2542 22.8156 22.0499 20.5606 22.0499C18.3069 22.0499 16.4792 20.2542 16.4792 18.04C16.4792 15.8246 18.3069 14.0289 20.5606 14.0289ZM10.4987 16.3295C11.4865 16.3295 12.2882 17.1172 12.2882 18.0876C12.2882 19.0567 11.4865 19.8457 10.4987 19.8457H2.69464C1.70693 19.8457 0.905159 19.0567 0.905159 18.0876C0.905159 17.1172 1.70693 16.3295 2.69464 16.3295H10.4987ZM4.98656 0.950439C7.24154 0.950439 9.06795 2.74611 9.06795 4.96026C9.06795 7.1757 7.24154 8.97137 4.98656 8.97137C2.73289 8.97137 0.905159 7.1757 0.905159 4.96026C0.905159 2.74611 2.73289 0.950439 4.98656 0.950439ZM22.8538 3.20345C23.8402 3.20345 24.642 3.99116 24.642 4.96026C24.642 5.93064 23.8402 6.71836 22.8538 6.71836H15.0497C14.062 6.71836 13.2603 5.93064 13.2603 4.96026C13.2603 3.99116 14.062 3.20345 15.0497 3.20345H22.8538Z" fill="#4B4A4C"/>
</svg>
