<svg width="26" height="26" viewBox="0 0 26 26" fill="none" xmlns="http://www.w3.org/2000/svg">
<path d="M19.0891 19.1256C19.5078 18.7097 20.1791 18.7097 20.5978 19.1256L23.3654 21.3595H23.4134C23.9733 21.9255 23.9733 22.843 23.4134 23.409C22.8535 23.9749 21.9457 23.9749 21.3858 23.409L19.0891 20.7768L19.0019 20.6784C18.8396 20.4729 18.7499 20.2167 18.7499 19.9512C18.7499 19.6413 18.872 19.3443 19.0891 19.1256ZM11.4591 2.16675C13.9236 2.16675 16.2872 3.1563 18.0299 4.91772C19.7725 6.67914 20.7516 9.06814 20.7516 11.5592C20.7516 16.7465 16.5912 20.9516 11.4591 20.9516C6.32704 20.9516 2.16667 16.7465 2.16667 11.5592C2.16667 6.37188 6.32704 2.16675 11.4591 2.16675Z" fill="url(#paint0_linear_20_11)"/>
<defs>
<linearGradient id="paint0_linear_20_11" x1="13" y1="2.16675" x2="13" y2="23.8334" gradientUnits="userSpaceOnUse">
<stop stop-color="#504F50"/>
<stop offset="1" stop-color="#575459" stop-opacity="0.77"/>
</linearGradient>
</defs>
</svg>
