<svg width="35" height="36" viewBox="0 0 35 36" fill="none" xmlns="http://www.w3.org/2000/svg">
<path d="M33.5438 1.91097C32.6893 1.03394 31.4246 0.707199 30.2454 1.05113L2.74703 9.0476C1.50286 9.39326 0.620996 10.3855 0.38344 11.646C0.140758 12.9289 0.988438 14.5574 2.09589 15.2384L10.694 20.523C11.5759 21.0647 12.7141 20.9288 13.4439 20.1928L23.2896 10.2858C23.7852 9.76986 24.6056 9.76986 25.1012 10.2858C25.5968 10.7845 25.5968 11.5927 25.1012 12.1086L15.2384 22.0174C14.5069 22.7517 14.3702 23.8952 14.9085 24.7826L20.1621 33.4669C20.7773 34.4987 21.8369 35.0834 22.9991 35.0834C23.1358 35.0834 23.2896 35.0834 23.4263 35.0662C24.7594 34.8942 25.819 33.9828 26.2121 32.6931L34.3641 5.22993C34.723 4.06056 34.3983 2.788 33.5438 1.91097Z" fill="#7C01F6"/>
</svg>
